<?xml version="1.0" standalone="no"?><!DOCTYPE svg PUBLIC "-//W3C//DTD SVG 1.1//EN" "http://www.w3.org/Graphics/SVG/1.1/DTD/svg11.dtd"><svg t="1711984713238" class="icon" viewBox="0 0 1024 1024" version="1.1" xmlns="http://www.w3.org/2000/svg" p-id="3806" xmlns:xlink="http://www.w3.org/1999/xlink" width="200" height="200"><path d="M1011.383095 1011.383095C995.875221 1026.890969 972.196958 1028.318804 958.473877 1014.556062L647.562815 703.684662C579.225048 759.608198 491.849481 793.241643 396.620822 793.241643 177.567142 793.241643 0 615.674501 0 396.620822 0 177.567142 177.567142 0 396.620822 0 615.674501 0 793.241643 177.567142 793.241643 396.620822 793.241643 491.849481 759.608198 579.225048 703.684662 647.562815L1014.556062 958.473877C1028.318804 972.196958 1026.890969 995.875221 1011.383095 1011.383095ZM396.620822 79.324164C221.393743 79.324164 79.324164 221.393743 79.324164 396.620822 79.324164 571.847901 221.393743 713.917479 396.620822 713.917479 571.847901 713.917479 713.917479 571.847901 713.917479 396.620822 713.917479 221.393743 571.847901 79.324164 396.620822 79.324164Z" p-id="3807" fill="#2c2c2c"></path></svg>