<?xml version="1.0" standalone="no"?><!DOCTYPE svg PUBLIC "-//W3C//DTD SVG 1.1//EN" "http://www.w3.org/Graphics/SVG/1.1/DTD/svg11.dtd"><svg t="1718852431388" class="icon" viewBox="0 0 1024 1024" version="1.1" xmlns="http://www.w3.org/2000/svg" p-id="3538" xmlns:xlink="http://www.w3.org/1999/xlink" width="200" height="200"><path d="M512 435.2H128c-12.8 0-19.2-6.4-19.2-19.2s6.4-19.2 19.2-19.2h384c12.8 0 19.2 6.4 19.2 19.2s-6.4 19.2-19.2 19.2zM352 563.2H128c-12.8 0-19.2-6.4-19.2-19.2s6.4-19.2 19.2-19.2h224c12.8 0 19.2 6.4 19.2 19.2s-6.4 19.2-19.2 19.2zM761.6 761.6s-6.4 0 0 0c-19.2 0-32-6.4-38.4-19.2l-57.6-70.4c-6.4-6.4-6.4-19.2 0-25.6 6.4-6.4 19.2-6.4 25.6 0l57.6 70.4s6.4 6.4 12.8 6.4 6.4 0 12.8-6.4L896 620.8c6.4-6.4 19.2-6.4 25.6 0 6.4 6.4 6.4 19.2 0 25.6l-121.6 102.4c-12.8 12.8-25.6 12.8-38.4 12.8z" fill="#2c2c2c" p-id="3539"></path><path d="M537.6 915.2H160c-89.6 0-160-70.4-160-160V249.6c0-89.6 70.4-160 160-160h576c89.6 0 160 70.4 160 160v185.6c0 6.4-6.4 12.8-12.8 12.8s-19.2-6.4-19.2-19.2V249.6c0-70.4-57.6-121.6-121.6-121.6h-576C96 128 44.8 185.6 44.8 249.6v505.6c0 70.4 57.6 121.6 121.6 121.6h377.6c12.8 0 19.2 6.4 19.2 19.2s-12.8 19.2-25.6 19.2z" fill="#2c2c2c" p-id="3540"></path><path d="M32 262.4h832v38.4H32zM780.8 934.4c-134.4 0-243.2-108.8-243.2-243.2S646.4 448 780.8 448 1024 563.2 1024 697.6s-108.8 236.8-243.2 236.8z m0-448C665.6 486.4 576 582.4 576 697.6s89.6 204.8 204.8 204.8 204.8-89.6 204.8-204.8-89.6-211.2-204.8-211.2z" fill="#2c2c2c" p-id="3541"></path></svg>